# xmcd
#
# Track frame offsets: 
#        150
#        22198
#        43993
#        70106
#        91942
#        112835
#        131001
#        151310
#        175608
#        194008
#        216463
#        235168
#        260952
#        277573
#        296807
#        316364
#
# Disc length: 4498 seconds
#
# Revision: 4
# Processed by: cddbd v1.5.2PL0 Copyright (c) Steve Scherf et al.
# Submitted via: ExactAudioCopyFreeDBPlugin 1.0
#
DISCID=f0119010
DTITLE=RIP SLYME - GOOD TIMES MODERN TIMES 2007-2010
DYEAR=2010
DGENRE=JHip-Hop
TTITLE0=SCAR
TTITLE1=熱帯夜
TTITLE2=One （CHRISTMAS CLASSIC version）
TTITLE3=SPEED KING
TTITLE4=NP
TTITLE5=Bubble Trouble
TTITLE6=Tales
TTITLE7=Remember (RIP SLYME with MONGOL800)
TTITLE8=太陽とビキニ
TTITLE9=love and hate
TTITLE10=STAIRS
TTITLE11=Good Day
TTITLE12=Journey
TTITLE13=星に願いを
TTITLE14=マタ逢ウ日マデ2010 ～冨田流～
TTITLE15=Good Times
EXTD=YEAR: 2010
EXTT0=
EXTT1=
EXTT2=
EXTT3=
EXTT4=
EXTT5=
EXTT6=
EXTT7=
EXTT8=
EXTT9=
EXTT10=
EXTT11=
EXTT12=
EXTT13=
EXTT14=
EXTT15=
PLAYORDER=
